<svg width="27" height="27" viewBox="0 0 27 27" fill="none" xmlns="http://www.w3.org/2000/svg">
<path d="M13.5 9.45C12.4259 9.45 11.3957 9.87669 10.6362 10.6362C9.8767 11.3957 9.45 12.4259 9.45 13.5C9.45 14.5741 9.8767 15.6043 10.6362 16.3638C11.3957 17.1233 12.4259 17.55 13.5 17.55C14.5741 17.55 15.6043 17.1233 16.3638 16.3638C17.1233 15.6043 17.55 14.5741 17.55 13.5C17.55 12.4259 17.1233 11.3957 16.3638 10.6362C15.6043 9.87669 14.5741 9.45 13.5 9.45ZM13.5 6.75C15.2902 6.75 17.0071 7.46116 18.273 8.72703C19.5388 9.9929 20.25 11.7098 20.25 13.5C20.25 15.2902 19.5388 17.0071 18.273 18.273C17.0071 19.5388 15.2902 20.25 13.5 20.25C11.7098 20.25 9.9929 19.5388 8.72703 18.273C7.46116 17.0071 6.75 15.2902 6.75 13.5C6.75 11.7098 7.46116 9.9929 8.72703 8.72703C9.9929 7.46116 11.7098 6.75 13.5 6.75ZM22.275 6.4125C22.275 6.86005 22.0972 7.28928 21.7807 7.60574C21.4643 7.92221 21.0351 8.1 20.5875 8.1C20.1399 8.1 19.7107 7.92221 19.3943 7.60574C19.0778 7.28928 18.9 6.86005 18.9 6.4125C18.9 5.96495 19.0778 5.53573 19.3943 5.21926C19.7107 4.90279 20.1399 4.725 20.5875 4.725C21.0351 4.725 21.4643 4.90279 21.7807 5.21926C22.0972 5.53573 22.275 5.96495 22.275 6.4125ZM13.5 2.7C10.1601 2.7 9.6147 2.70945 8.06085 2.7783C7.00245 2.82825 6.29235 2.97 5.63355 3.2265C5.08223 3.42892 4.58381 3.75335 4.17555 4.17555C3.75301 4.58379 3.42813 5.08219 3.22515 5.63355C2.96865 6.29505 2.8269 7.0038 2.7783 8.06085C2.7081 9.55125 2.69865 10.0724 2.69865 13.5C2.69865 16.8412 2.7081 17.3853 2.77695 18.9391C2.8269 19.9962 2.96865 20.7077 3.2238 21.3651C3.4533 21.9524 3.7233 22.3749 4.1715 22.8231C4.62645 23.2767 5.049 23.548 5.6295 23.7722C6.2964 24.03 7.0065 24.1731 8.0595 24.2217C9.5499 24.2919 10.071 24.3 13.4987 24.3C16.8399 24.3 17.3839 24.2906 18.9378 24.2217C19.9935 24.1717 20.7036 24.03 21.3638 23.7749C21.9146 23.5714 22.4128 23.2471 22.8218 22.8258C23.2767 22.3722 23.5481 21.9496 23.7722 21.3678C24.0287 20.7036 24.1718 19.9935 24.2204 18.9378C24.2906 17.4487 24.2987 16.9263 24.2987 13.5C24.2987 10.1601 24.2892 9.6147 24.2204 8.06085C24.1704 7.00515 24.0273 6.29235 23.7722 5.63355C23.5687 5.08277 23.2444 4.58458 22.8231 4.17555C22.415 3.75279 21.9166 3.42788 21.3651 3.22515C20.7036 2.96865 19.9935 2.8269 18.9378 2.7783C17.4487 2.7081 16.929 2.7 13.5 2.7ZM13.5 0C17.1679 0 17.6256 0.0134999 19.0661 0.0809999C20.5025 0.1485 21.4826 0.37395 22.3425 0.70875C23.2335 1.05165 23.9841 1.51605 24.7347 2.2653C25.4212 2.94016 25.9523 3.75649 26.2913 4.6575C26.6247 5.51745 26.8515 6.49755 26.919 7.9353C26.9825 9.3744 27 9.83205 27 13.5C27 17.1679 26.9865 17.6256 26.919 19.0647C26.8515 20.5025 26.6247 21.4812 26.2913 22.3425C25.9533 23.244 25.422 24.0605 24.7347 24.7347C24.0596 25.4209 23.2434 25.9521 22.3425 26.2913C21.4826 26.6247 20.5025 26.8515 19.0661 26.919C17.6256 26.9825 17.1679 27 13.5 27C9.83205 27 9.3744 26.9865 7.93395 26.919C6.49755 26.8515 5.5188 26.6247 4.6575 26.2913C3.75614 25.953 2.93966 25.4218 2.2653 24.7347C1.57873 24.0599 1.04755 23.2436 0.70875 22.3425C0.37395 21.4825 0.1485 20.5025 0.0810002 19.0647C0.0162002 17.6256 0 17.1679 0 13.5C0 9.83205 0.0135002 9.3744 0.0810002 7.9353C0.1485 6.4962 0.37395 5.5188 0.70875 4.6575C1.04657 3.75594 1.57788 2.93938 2.2653 2.2653C2.93986 1.57846 3.75628 1.04723 4.6575 0.70875C5.51745 0.37395 6.4962 0.1485 7.93395 0.0809999C9.3744 0.0175499 9.83205 0 13.5 0Z" fill="black"/>
</svg>
